# xmcd
#
# Track frame offsets: 
#        150
#        14321
#        25999
#        42238
#        58838
#        81966
#        95994
#        113726
#        126935
#        139922
#        163020
#        178467
#
# Disc length: 2554 seconds
#
# Revision: 0
# Processed by: cddbd v1.5.2PL0 Copyright (c) Steve Scherf et al.
# Submitted via: ExactAudioCopy v1.0b3
#
DISCID=ae09f80c
DTITLE=Zamora Rose Project - Stand True
DYEAR=2013
DGENRE=Bluesy Rock
TTITLE0=Painting It Blue
TTITLE1=Mexican Maid
TTITLE2=Time To Kill
TTITLE3=Psycho
TTITLE4=Love Let's Us Know
TTITLE5=Galileo's Groove
TTITLE6=Tremblin'
TTITLE7=Falling Down
TTITLE8=Trasparent Leaves
TTITLE9=Stand True
TTITLE10=Slow Train
TTITLE11=Times Chage
EXTD=
EXTT0=
EXTT1=
EXTT2=
EXTT3=
EXTT4=
EXTT5=
EXTT6=
EXTT7=
EXTT8=
EXTT9=
EXTT10=
EXTT11=
PLAYORDER=
